<svg width="934" height="701" viewBox="0 0 934 701" fill="none" xmlns="http://www.w3.org/2000/svg">
<path fill-rule="evenodd" clip-rule="evenodd" d="M787.494 0.166748C868.035 0.166748 933.334 65.4588 933.334 146.007V554.34C933.334 634.881 868.042 700.18 787.494 700.18H145.827C65.2855 700.18 -0.0131836 634.888 -0.0131836 554.34V146.007C-0.0131836 65.4654 65.2788 0.166748 145.827 0.166748H787.494ZM295.92 474.767C292.42 466.366 287.691 455.693 281.743 442.74C276.144 429.792 270.019 415.792 263.368 400.74C256.717 385.693 249.545 370.292 241.841 354.543C234.493 338.444 227.492 323.392 220.841 309.392C214.19 295.043 207.894 282.267 201.94 271.069C196.341 259.866 191.794 251.293 188.295 245.345C184.441 286.643 181.295 331.444 178.842 379.745C176.394 427.699 174.295 476.172 172.545 525.172H122.67C124.066 493.672 125.644 461.995 127.394 430.145C129.144 397.948 131.066 366.448 133.17 335.645C135.618 304.495 138.066 274.224 140.519 244.823C143.316 215.421 146.295 187.599 149.441 161.349H194.066C203.519 176.745 213.67 194.948 224.52 215.948C235.369 236.948 246.217 258.995 257.066 282.099C267.92 304.848 278.421 327.771 288.566 350.869C298.717 373.619 307.993 394.448 316.394 413.348C324.795 394.447 334.066 373.619 344.217 350.869C354.368 327.771 364.868 304.848 375.717 282.099C386.566 258.995 397.42 236.948 408.269 215.948C419.118 194.948 429.269 176.745 438.717 161.349H483.342C495.243 278.6 504.17 399.869 510.118 525.176H460.244C458.494 476.176 456.395 427.703 453.942 379.749C451.494 331.452 448.343 286.651 444.494 245.349C440.994 251.297 436.27 259.871 430.316 271.073C424.717 282.271 418.592 295.047 411.942 309.396C405.296 323.396 398.119 338.448 390.42 354.547C383.066 370.296 376.066 385.697 369.42 400.744C362.769 415.796 356.467 429.796 350.519 442.744C344.92 455.697 340.368 466.369 336.868 474.771L295.92 474.767ZM583.32 420.584C571.929 409.193 571.929 390.724 583.32 379.333C594.711 367.943 613.18 367.943 624.571 379.333L667.587 422.349V178.403C667.587 162.293 680.644 149.236 696.754 149.236C712.863 149.236 725.92 162.293 725.92 178.403V422.349L768.936 379.333C780.327 367.943 798.796 367.943 810.187 379.333C821.578 390.724 821.578 409.193 810.187 420.584L717.38 513.391C705.989 524.781 687.52 524.781 676.129 513.391L583.32 420.584Z" fill="#E46643"/>
</svg>
